<?xml version="1.0" encoding="utf-8"?>
<!-- Generator: Adobe Illustrator 25.1.0, SVG Export Plug-In . SVG Version: 6.00 Build 0)  -->
<svg version="1.1" id="Layer_1" xmlns="http://www.w3.org/2000/svg" xmlns:xlink="http://www.w3.org/1999/xlink" x="0px" y="0px"
	 viewBox="0 0 160 52.8" style="enable-background:new 0 0 160 52.8;" xml:space="preserve">
<style type="text/css">
	.st0{fill:#FFFFFF;}
</style>
<g>
	<g>
		<g>
			<g>
				<path class="st0" d="M87.3,3.8l16.8,23L87.4,49.7h13l10.2-14l10.2,14h13L100.4,3.8H87.3z M157,3.8h-13l-10.3,14.1L123.4,3.8h-13
					L144,49.7h13l-16.8-22.9L157,3.8z M38.3,19.5C38.2,12.4,33.7,6.1,27,3.8c-1.8-0.7-3.8-1-5.7-1l0,0H3v5.1c0,0,0,30.7,0,41.8h10.6
					V36.2H21h0.5l9.9,13.5h13L31.8,32.5C35.9,29.4,38.3,24.6,38.3,19.5 M23.3,25.5c-0.8,0.3-1.5,0.4-2.4,0.4h-7.3V13H21
					c3.6-0.1,6.6,2.8,6.7,6.5C27.6,22.2,25.9,24.6,23.3,25.5 M74,3.8c-4.8-1.4-9.9-1.4-14.7,0C49.1,6.8,41.7,16,41.7,26.8
					s7.4,19.9,17.6,22.9c4.8,1.4,9.9,1.4,14.6,0c10.3-2.9,17.5-12.2,17.6-22.9C91.4,16.1,84.3,6.8,74,3.8 M66.6,40.5
					c-7.7,0.2-14.1-6-14.3-13.7c0,0,0,0,0-0.1c0.3-7.9,6.9-14.1,14.8-13.8c7.5,0.3,13.5,6.3,13.8,13.8
					C80.8,34.5,74.4,40.7,66.6,40.5"/>
				<path class="st0" d="M154,26.3c0,0.2-0.1,0.3-0.3,0.4h-0.1h-0.5v-0.8h0.5C153.8,25.9,154,26.1,154,26.3
					C154,26.3,154,26.3,154,26.3 M153.6,25.2h-1.2v3h0.7v-0.9h0.5l0.6,0.9h0.8l-0.8-1.1c0.3-0.2,0.4-0.5,0.4-0.8
					c0-0.5-0.3-0.9-0.7-1C153.9,25.2,153.7,25.2,153.6,25.2L153.6,25.2L153.6,25.2z"/>
				<path class="st0" d="M153.4,24c1.5,0,2.7,1.2,2.7,2.7s-1.2,2.7-2.7,2.7c-1.5,0-2.7-1.2-2.7-2.7C150.7,25.3,151.9,24,153.4,24
					L153.4,24 M153.4,23.2c-2,0-3.6,1.6-3.6,3.6s1.6,3.6,3.6,3.6c2,0,3.6-1.6,3.6-3.6C157,24.8,155.4,23.2,153.4,23.2L153.4,23.2"/>
			</g>
		</g>
	</g>
</g>
</svg>
