<svg xmlns="http://www.w3.org/2000/svg" xmlns:xlink="http://www.w3.org/1999/xlink" viewBox="0 0 154.01 48"><defs><clipPath id="a" transform="translate(-4.58 -1.94)"><rect x="4.58" y="1.94" width="154.01" height="48" style="fill:none"/></clipPath></defs><title>logo-yellow</title><g style="clip-path:url(#a)"><g style="clip-path:url(#a)"><path d="M88.91,3l16.81,23L89,48.88h13l10.25-14,10.25,14h13L101.93,3Zm69.68,0h-13L135.27,17.08,125,3H112l33.56,45.87h13L141.78,26ZM39.88,18.63A16.73,16.73,0,0,0,28.57,3a17.53,17.53,0,0,0-5.73-1v0H4.59V7.06s0,30.67,0,41.82H15.22V35.33h7.35l.5,0L33,48.88H46L33.4,31.63a16.58,16.58,0,0,0,6.48-13m-15,6a6.69,6.69,0,0,1-2.35.42H15.22V12.19h7.32a6.58,6.58,0,0,1,6.7,6.45,6.49,6.49,0,0,1-4.33,6M75.55,3A25.71,25.71,0,0,0,60.87,3C50.7,6,43.27,15.17,43.27,25.94S50.7,45.86,60.88,48.88a25.8,25.8,0,0,0,14.64,0A24.17,24.17,0,0,0,93.13,25.94,24.14,24.14,0,0,0,75.55,3M68.21,39.7A14,14,0,0,1,53.92,25.94a14.3,14.3,0,0,1,28.58,0A14.05,14.05,0,0,1,68.21,39.7" transform="translate(-4.58 -1.94)" style="fill:#ffd737"/><path d="M155.61,25.5a.42.42,0,0,1-.28.39l-.15,0h-.47v-.83h.47a.42.42,0,0,1,.43.41m-.44-1.08H154v3h.69v-.87h.5l.64.87h.84l-.81-1.11a1.07,1.07,0,0,0,.42-.84,1.09,1.09,0,0,0-.73-1,1.16,1.16,0,0,0-.37-.07h0Z" transform="translate(-4.58 -1.94)" style="fill:#ffd737"/><path d="M155,23.2a2.74,2.74,0,1,1-2.74,2.74A2.74,2.74,0,0,1,155,23.2m0-.83a3.57,3.57,0,1,0,3.57,3.57A3.57,3.57,0,0,0,155,22.37" transform="translate(-4.58 -1.94)" style="fill:#ffd737"/></g></g></svg>