<svg xmlns="http://www.w3.org/2000/svg" viewBox="0 0 106.25 131.47"><defs><style>.cls-1{fill:#fff;}</style></defs><g id="Layer_2" data-name="Layer 2"><g id="Layer_1-2" data-name="Layer 1"><path class="cls-1" d="M0,66.21V5.94c0-2.75.48-3.3,3.16-3.68A242,242,0,0,1,29.23.1,141.6,141.6,0,0,1,51.31.93C62.61,2.35,73.42,5.3,82.83,12a52.53,52.53,0,0,1,21.32,32.53c3.53,16.22,2.72,32.25-3.3,47.79-6.77,17.52-19.47,28.8-37.31,34.44-11.84,3.75-24,4.92-36.34,4.64-7.18-.17-14.35-.6-21.52-.93-1-.05-2-.16-3-.26-1.85-.18-2.65-1.07-2.68-3V66.21m88.74-4.44c-.17-2.32-.27-5-.58-7.62-1-8.62-3.66-16.63-9-23.59a31.76,31.76,0,0,0-10-9c-7.21-3.81-16.21.3-18.67,8.44q-4.29,14.18-8.4,28.4A12.25,12.25,0,0,0,45.32,71a14.92,14.92,0,0,0,7.9,4.35C60,76.68,66.85,78.06,73.72,79A13.16,13.16,0,0,0,88.45,67.55c.25-1.79.19-3.62.29-5.78M43.25,13.62c-.26,0-.47-.12-.69-.14a103.63,103.63,0,0,0-23.21,1c-2,.32-2.68,1.13-2.68,3.1,0,8.5,0,17,0,25.5a4.84,4.84,0,0,0,.65,2.28c1.34,2.34,2.79,4.62,4.2,6.92L25,57.91a2.54,2.54,0,0,0,4.66-.61c.11-.33.22-.66.32-1Q35,40,40.09,23.71c1-3.34,2.09-6.68,3.16-10.09M17,67.84l-.25.09c0,.26,0,.53,0,.8V114.5c0,1.86.81,2.88,2.68,3,6.05.23,12.11.47,18.16.46,3.1,0,6.19-.5,9.6-.8L17,67.84M58.6,113.78a6.29,6.29,0,0,0,.63-.19A43.45,43.45,0,0,0,80,96.74c1.45-2.24.7-4-1.92-4.45L48,86.88a2.64,2.64,0,0,0-3,1A2.66,2.66,0,0,0,45.25,91c2.36,3.81,4.75,7.59,7,11.46,2.16,3.71,4.9,7.12,6.34,11.28"/></g></g></svg>